<svg
        xmlns="http://www.w3.org/2000/svg"
        viewBox="0 0 57 32"
        version="1.1"
      >
        <g id="surface1">
          <path
            stroke="none" fill="rgb(11.764706%,74.901961%,45.098039%)" 
            d="M 8.6875 10.734375 C 8.992188 10.746094 9.503906 10.746094 9.828125 10.734375 C 10.152344 10.722656 9.90625 10.714844 9.277344 10.714844 C 8.652344 10.714844 8.386719 10.722656 8.6875 10.734375 M 1.15625 14.191406 L 1.167969 15.777344 L 1.207031 12.675781 L 3.324219 12.636719 L 2.234375 12.621094 L 1.140625 12.609375 L 1.15625 14.191406 M 8.660156 12.65625 C 9.644531 12.664062 11.253906 12.664062 12.238281 12.65625 C 13.222656 12.644531 12.417969 12.636719 10.449219 12.636719 C 8.480469 12.636719 7.675781 12.644531 8.660156 12.65625 M 37.574219 12.65625 C 38.085938 12.667969 38.925781 12.667969 39.441406 12.65625 C 39.953125 12.644531 39.535156 12.636719 38.507812 12.636719 C 37.480469 12.636719 37.058594 12.644531 37.574219 12.65625 M 43.972656 12.65625 C 44.628906 12.667969 45.683594 12.667969 46.316406 12.65625 C 46.949219 12.644531 46.414062 12.636719 45.125 12.636719 C 43.835938 12.636719 43.316406 12.644531 43.972656 12.65625 M 50.238281 12.65625 C 50.441406 12.667969 50.765625 12.667969 50.96875 12.65625 C 51.167969 12.644531 51.003906 12.632812 50.601562 12.632812 C 50.203125 12.632812 50.039062 12.644531 50.238281 12.65625 M 3.261719 19.902344 C 3.261719 22.210938 3.269531 23.152344 3.277344 22 C 3.289062 20.847656 3.289062 18.960938 3.277344 17.808594 C 3.269531 16.65625 3.261719 17.597656 3.261719 19.902344 M 53.097656 19.839844 C 52.363281 19.992188 51.691406 20.574219 51.429688 21.289062 C 51.03125 22.359375 51.507812 23.5625 52.542969 24.097656 C 52.878906 24.269531 52.972656 24.289062 53.515625 24.289062 C 54.058594 24.289062 54.15625 24.269531 54.488281 24.097656 C 55.25 23.707031 55.742188 22.921875 55.746094 22.078125 C 55.75 21.550781 55.652344 21.234375 55.359375 20.800781 C 54.859375 20.066406 53.921875 19.667969 53.097656 19.839844 "
          />
          <path
            stroke="none" fill="rgb(25.882353%,28.627451%,27.45098%)" 
            d="M 6.734375 7.710938 C 5.546875 7.929688 4.597656 8.484375 4.039062 9.292969 C 3.492188 10.082031 3.300781 10.761719 3.296875 11.921875 L 3.292969 12.671875 L 1.203125 12.671875 L 1.203125 15.742188 L 3.292969 15.742188 L 3.292969 24.0625 L 6.902344 24.0625 L 6.902344 15.742188 L 10.386719 15.742188 L 10.386719 24.0625 L 13.996094 24.0625 L 13.996094 12.671875 L 6.902344 12.671875 L 6.902344 12.164062 C 6.902344 11.417969 7.046875 11.136719 7.566406 10.859375 C 7.796875 10.742188 7.953125 10.722656 9.105469 10.699219 L 10.386719 10.671875 L 10.386719 7.617188 L 8.789062 7.621094 C 7.777344 7.625 7.023438 7.65625 6.734375 7.710938 M 28.820312 12.617188 C 26.722656 13.0625 25.230469 14.664062 24.757812 16.984375 C 24.585938 17.828125 24.613281 19.089844 24.824219 19.871094 C 25.417969 22.070312 26.960938 23.574219 29.101562 24.035156 C 29.703125 24.164062 31.066406 24.183594 31.644531 24.070312 C 32.542969 23.898438 33.523438 23.464844 34.125 22.976562 C 34.597656 22.589844 35.167969 21.898438 35.40625 21.414062 L 35.597656 21.027344 L 33.996094 20.570312 L 32.394531 20.109375 L 32.300781 20.246094 C 32.050781 20.601562 31.816406 20.808594 31.488281 20.972656 C 31.160156 21.136719 31.066406 21.152344 30.433594 21.152344 C 29.8125 21.152344 29.695312 21.132812 29.386719 20.984375 C 29.195312 20.894531 28.945312 20.742188 28.835938 20.644531 C 28.601562 20.449219 28.261719 19.792969 28.203125 19.4375 L 28.167969 19.199219 L 35.777344 19.199219 L 35.820312 18.902344 C 35.84375 18.738281 35.84375 18.277344 35.820312 17.875 C 35.671875 15.371094 34.402344 13.53125 32.332031 12.8125 C 31.3125 12.460938 29.917969 12.382812 28.820312 12.617188 M 14.339844 13.039062 C 14.539062 13.621094 17.617188 22.296875 18.191406 23.890625 L 18.253906 24.066406 L 19.839844 24.050781 L 21.425781 24.03125 L 22.121094 22.078125 C 22.5 21.007812 23.410156 18.460938 24.136719 16.421875 C 24.863281 14.386719 25.460938 12.707031 25.460938 12.695312 C 25.460938 12.683594 24.636719 12.671875 23.628906 12.671875 L 21.792969 12.671875 L 21.636719 13.199219 C 21.550781 13.492188 21.117188 14.953125 20.675781 16.449219 C 20.234375 17.945312 19.859375 19.195312 19.839844 19.226562 C 19.8125 19.269531 18.34375 14.386719 17.921875 12.847656 L 17.855469 12.609375 L 14.195312 12.609375 L 14.339844 13.039062 M 36.671875 18.367188 L 36.671875 24.0625 L 40.34375 24.0625 L 40.34375 20.894531 C 40.34375 17.402344 40.367188 17.121094 40.71875 16.558594 C 41.132812 15.902344 41.539062 15.742188 42.820312 15.742188 L 43.761719 15.742188 L 43.761719 24.0625 L 47.4375 24.0625 L 47.4375 20.929688 C 47.4375 17.660156 47.453125 17.40625 47.71875 16.800781 C 47.910156 16.363281 48.125 16.125 48.492188 15.933594 C 48.78125 15.785156 48.867188 15.773438 50.007812 15.757812 L 51.21875 15.738281 L 51.257812 15.019531 C 51.28125 14.625 51.300781 13.933594 51.300781 13.484375 L 51.300781 12.660156 L 50.238281 12.683594 C 49.183594 12.703125 49.171875 12.707031 48.753906 12.914062 C 48.289062 13.144531 47.84375 13.59375 47.59375 14.078125 L 47.441406 14.367188 L 47.441406 13.519531 L 47.4375 12.671875 L 44.886719 12.671875 C 42.238281 12.671875 41.992188 12.695312 41.488281 12.957031 C 41.167969 13.125 40.703125 13.632812 40.515625 14.027344 L 40.351562 14.367188 L 40.34375 12.671875 L 36.671875 12.671875 L 36.671875 18.367188 M 29.765625 15.226562 C 28.984375 15.359375 28.59375 15.71875 28.3125 16.570312 C 28.242188 16.78125 28.183594 16.972656 28.183594 16.988281 C 28.183594 17.007812 29.109375 17.023438 30.238281 17.023438 L 32.296875 17.023438 L 32.257812 16.816406 C 32.144531 16.179688 31.667969 15.570312 31.132812 15.367188 C 30.738281 15.21875 30.164062 15.160156 29.765625 15.226562 "
          />
        </g>
      </svg>