<svg
      xmlns="http://www.w3.org/2000/svg"
      viewBox="0 0 33 32"
      version="1.1"
    >
      <g id="surface1">
        <path
          stroke="none"
          fill="rgb(0%,17.647059%,44.705882%)"
          d="M 14 10.6875 C 11.507812 12.792969 9.980469 15.285156 9.359375 18.253906 C 8.824219 20.820312 8.875 21.253906 9.765625 21.722656 C 11.464844 22.613281 13.847656 22.996094 16.679688 22.824219 C 19.46875 22.652344 22.152344 21.890625 22.414062 21.195312 C 22.484375 21.007812 22.417969 20.019531 22.269531 19 C 21.773438 15.660156 19.664062 12.167969 16.898438 10.121094 C 16.363281 9.722656 15.835938 9.398438 15.726562 9.398438 C 15.617188 9.398438 14.839844 9.976562 14 10.6875 "
        />
        <path
          stroke="none"
          fill="rgb(3.921569%,47.058824%,100%)"
          d="M 28.488281 14.644531 C 27.835938 16.679688 25.515625 19.527344 23.558594 20.703125 C 22.953125 21.066406 22.746094 21.402344 22.628906 22.203125 C 22.164062 25.371094 21.394531 27.402344 19.945312 29.269531 C 19.085938 30.382812 19.3125 30.445312 21.253906 29.632812 C 26.425781 27.472656 29.746094 22.078125 29.449219 16.320312 C 29.320312 13.832031 28.957031 13.195312 28.488281 14.644531 "
        />
        <path
          stroke="none"
          fill="rgb(74.901961%,9.019608%,65.490196%)"
          d="M 8.9375 21.585938 C 9.203125 24.96875 10.269531 27.832031 11.949219 29.65625 C 12.53125 30.292969 12.875 30.421875 14.378906 30.5625 C 15.339844 30.652344 16.792969 30.628906 17.613281 30.507812 C 18.867188 30.328125 19.214844 30.15625 19.820312 29.433594 C 21.269531 27.695312 22.355469 24.886719 22.554688 22.347656 C 22.632812 21.339844 22.664062 21.34375 20.613281 22.203125 C 17.703125 23.421875 13.25 23.324219 10.332031 21.976562 C 9.402344 21.546875 9.007812 21.210938 8.933594 20.785156 C 8.875 20.457031 8.875 20.820312 8.9375 21.585938 "
        />
        <path
          stroke="none"
          fill="rgb(100%,28.235294%,2.745098%)"
          d="M 2.40625 14.285156 C 2.128906 15.335938 2.25 19.414062 2.597656 20.738281 C 3.601562 24.558594 7.253906 28.570312 10.855469 29.800781 C 11.535156 30.03125 12.125 30.222656 12.164062 30.222656 C 12.207031 30.222656 11.734375 29.453125 11.113281 28.511719 C 9.890625 26.664062 9.320312 25.058594 9.085938 22.839844 C 8.953125 21.574219 8.84375 21.363281 8.035156 20.808594 C 5.761719 19.25 3.667969 16.691406 3.019531 14.667969 C 2.660156 13.554688 2.609375 13.523438 2.40625 14.285156 "
        />
        <path
          stroke="none"
          fill="rgb(100%,59.215686%,69.411765%)"
          d="M 15.3125 3.222656 C 15.554688 3.285156 15.945312 3.285156 16.1875 3.222656 C 16.429688 3.160156 16.230469 3.105469 15.75 3.105469 C 15.269531 3.105469 15.070312 3.160156 15.3125 3.222656 M 12.832031 3.472656 C 12.925781 3.5625 13.074219 3.5625 13.167969 3.472656 C 13.257812 3.378906 13.183594 3.300781 13 3.300781 C 12.816406 3.300781 12.742188 3.378906 12.832031 3.472656 M 18.332031 3.472656 C 18.425781 3.5625 18.574219 3.5625 18.667969 3.472656 C 18.757812 3.378906 18.683594 3.300781 18.5 3.300781 C 18.316406 3.300781 18.242188 3.378906 18.332031 3.472656 M 11.832031 3.726562 C 11.925781 3.816406 12.074219 3.816406 12.167969 3.726562 C 12.257812 3.632812 12.183594 3.554688 12 3.554688 C 11.816406 3.554688 11.742188 3.632812 11.832031 3.726562 M 19.332031 3.726562 C 19.425781 3.816406 19.574219 3.816406 19.667969 3.726562 C 19.757812 3.632812 19.683594 3.554688 19.5 3.554688 C 19.316406 3.554688 19.242188 3.632812 19.332031 3.726562 M 11.082031 3.980469 C 11.175781 4.070312 11.324219 4.070312 11.417969 3.980469 C 11.507812 3.886719 11.433594 3.808594 11.25 3.808594 C 11.066406 3.808594 10.992188 3.886719 11.082031 3.980469 M 20.5 4.0625 C 20.707031 4.199219 20.988281 4.308594 21.125 4.308594 C 21.261719 4.308594 21.207031 4.199219 21 4.0625 C 20.792969 3.929688 20.511719 3.816406 20.375 3.816406 C 20.238281 3.816406 20.292969 3.929688 20.5 4.0625 M 10.332031 4.234375 C 10.425781 4.324219 10.574219 4.324219 10.667969 4.234375 C 10.757812 4.140625 10.683594 4.0625 10.5 4.0625 C 10.316406 4.0625 10.242188 4.140625 10.332031 4.234375 M 8.101562 5.371094 C 7.992188 5.554688 8.03125 5.597656 8.210938 5.484375 C 8.5 5.304688 8.597656 5.078125 8.390625 5.078125 C 8.328125 5.078125 8.199219 5.210938 8.101562 5.371094 M 23.75 5.683594 C 23.75 5.734375 23.945312 5.9375 24.1875 6.128906 C 24.585938 6.445312 24.59375 6.433594 24.28125 6.03125 C 23.957031 5.609375 23.75 5.472656 23.75 5.683594 M 7.101562 6.132812 C 6.992188 6.316406 7.03125 6.359375 7.210938 6.246094 C 7.371094 6.148438 7.5 6.015625 7.5 5.953125 C 7.5 5.742188 7.277344 5.839844 7.101562 6.132812 M 25.625 7.363281 C 25.710938 7.503906 25.835938 7.617188 25.90625 7.617188 C 25.972656 7.617188 25.960938 7.503906 25.875 7.363281 C 25.789062 7.226562 25.664062 7.109375 25.59375 7.109375 C 25.527344 7.109375 25.539062 7.226562 25.625 7.363281 M 4.753906 8.742188 C 3.671875 10.21875 3.238281 11.039062 2.445312 13.121094 C 1.714844 15.03125 1.652344 19.398438 2.332031 20.824219 C 2.609375 21.410156 2.703125 21.496094 2.597656 21.078125 C 2.320312 19.945312 2.203125 14.875 2.441406 14.230469 C 2.667969 13.621094 2.683594 13.632812 3 14.613281 C 3.636719 16.589844 5.515625 18.957031 7.789062 20.644531 L 8.703125 21.324219 L 8.878906 19.996094 C 9.40625 16.011719 11.382812 12.449219 14.257812 10.300781 L 15.773438 9.167969 L 15.070312 8.796875 C 13.46875 7.957031 11.351562 7.535156 8.539062 7.492188 L 5.703125 7.453125 L 4.753906 8.742188 M 27.1875 9.480469 C 27.703125 10.242188 28.164062 10.828125 28.210938 10.785156 C 28.324219 10.679688 26.816406 8.453125 26.496094 8.253906 C 26.363281 8.167969 26.671875 8.71875 27.1875 9.480469 M 29.027344 13.621094 C 29.75 16.265625 29.625 18.820312 28.625 21.96875 C 28.460938 22.476562 28.460938 22.476562 28.777344 21.96875 C 29.285156 21.15625 29.742188 18.804688 29.746094 17.003906 C 29.75 15.378906 29.179688 12.527344 28.765625 12.105469 C 28.648438 11.988281 28.765625 12.667969 29.027344 13.621094 M 2.757812 21.921875 C 2.753906 22.035156 3.058594 22.773438 3.4375 23.558594 C 4.230469 25.214844 7.023438 28.1875 8.507812 28.957031 C 9.871094 29.664062 9.753906 29.425781 8.257812 28.449219 C 6.609375 27.375 4.566406 25.097656 3.570312 23.226562 C 3.125 22.394531 2.761719 21.808594 2.757812 21.921875 M 27.445312 24.28125 C 27.074219 24.894531 26.820312 25.398438 26.882812 25.398438 C 27.058594 25.398438 28.335938 23.367188 28.222656 23.257812 C 28.167969 23.207031 27.820312 23.667969 27.445312 24.28125 M 25.609375 26.730469 L 24.875 27.554688 L 25.6875 26.808594 C 26.132812 26.398438 26.5 26.027344 26.5 25.984375 C 26.5 25.789062 26.292969 25.960938 25.609375 26.730469 M 23.625 28.332031 C 23.160156 28.734375 23.070312 28.882812 23.394531 28.726562 C 23.859375 28.5 24.703125 27.679688 24.46875 27.683594 C 24.417969 27.683594 24.039062 27.976562 23.625 28.332031 M 22.25 29.207031 C 22.023438 29.355469 21.992188 29.453125 22.171875 29.457031 C 22.335938 29.457031 22.539062 29.347656 22.625 29.207031 C 22.816406 28.890625 22.730469 28.890625 22.25 29.207031 M 10.535156 29.945312 C 11.96875 30.757812 15.519531 31.140625 18.046875 30.753906 C 19.1875 30.582031 20.40625 30.269531 20.75 30.058594 C 21.132812 29.824219 21.191406 29.738281 20.894531 29.832031 C 19.304688 30.339844 17.851562 30.542969 15.75 30.550781 C 13.585938 30.5625 12.929688 30.449219 10.070312 29.566406 C 9.824219 29.492188 10.035156 29.660156 10.535156 29.945312 "
        />
        <path
          stroke="none"
          fill="rgb(100%,77.647059%,0%)"
          d="M 11.625 3.902344 C 10.664062 4.21875 9.59375 4.628906 9.25 4.8125 C 8.203125 5.363281 6 7.109375 6 7.386719 C 6 7.550781 6.523438 7.585938 7.4375 7.480469 C 9.347656 7.261719 12.421875 7.722656 14.382812 8.519531 L 15.972656 9.167969 L 16.925781 8.679688 C 18.890625 7.679688 23.308594 7.15625 25.375 7.683594 C 26.085938 7.863281 26.058594 7.8125 24.875 6.703125 C 23.515625 5.425781 21.265625 4.222656 19.191406 3.664062 C 17.136719 3.109375 13.703125 3.214844 11.625 3.902344 "
        />
        <path
          stroke="none"
          fill="rgb(0%,70.588235%,31.372549%)"
          d="M 21.25 7.527344 C 19.46875 7.792969 17.777344 8.242188 16.835938 8.707031 L 15.785156 9.226562 L 16.828125 9.902344 C 18.351562 10.886719 20.363281 13.238281 21.230469 15.054688 C 22.046875 16.75 22.75 19.222656 22.75 20.371094 C 22.75 20.761719 22.8125 21.078125 22.890625 21.078125 C 23.199219 21.078125 25.164062 19.558594 25.902344 18.753906 C 27.003906 17.546875 28.089844 15.808594 28.582031 14.457031 C 28.972656 13.394531 28.976562 13.199219 28.621094 12.171875 C 28.410156 11.554688 27.765625 10.335938 27.1875 9.46875 C 26.234375 8.03125 26.035156 7.867188 24.933594 7.628906 C 23.757812 7.371094 22.523438 7.339844 21.25 7.527344 "
        />
        <path
          stroke="none"
          fill="rgb(2.745098%,41.176471%,52.156863%)"
          d="M 16.625 9.90625 C 16.710938 10.042969 16.835938 10.160156 16.90625 10.160156 C 16.972656 10.160156 16.960938 10.042969 16.875 9.90625 C 16.789062 9.765625 16.664062 9.652344 16.59375 9.652344 C 16.527344 9.652344 16.539062 9.765625 16.625 9.90625 M 14.21875 10.347656 C 13.90625 10.753906 13.914062 10.761719 14.3125 10.445312 C 14.554688 10.253906 14.75 10.054688 14.75 10 C 14.75 9.792969 14.542969 9.925781 14.21875 10.347656 M 18.5 11.554688 C 19.246094 12.324219 19.914062 12.953125 19.984375 12.953125 C 20.050781 12.953125 19.496094 12.324219 18.75 11.554688 C 18.003906 10.789062 17.335938 10.160156 17.265625 10.160156 C 17.199219 10.160156 17.753906 10.789062 18.5 11.554688 M 12.738281 11.617188 L 11.875 12.570312 L 12.8125 11.695312 C 13.328125 11.214844 13.75 10.785156 13.75 10.742188 C 13.75 10.550781 13.539062 10.734375 12.738281 11.617188 M 11.351562 13.246094 C 11.242188 13.425781 11.28125 13.46875 11.460938 13.359375 C 11.75 13.175781 11.847656 12.953125 11.640625 12.953125 C 11.578125 12.953125 11.449219 13.085938 11.351562 13.246094 M 20.808594 14.644531 C 21.257812 15.507812 21.660156 16.175781 21.703125 16.128906 C 21.816406 16.019531 20.878906 14.207031 20.390625 13.585938 C 20.167969 13.308594 20.355469 13.785156 20.808594 14.644531 M 10.851562 14.007812 C 10.742188 14.1875 10.78125 14.230469 10.960938 14.121094 C 11.25 13.9375 11.347656 13.714844 11.140625 13.714844 C 11.078125 13.714844 10.949219 13.847656 10.851562 14.007812 M 10.238281 15.007812 C 10.085938 15.296875 10.007812 15.582031 10.0625 15.640625 C 10.121094 15.699219 10.296875 15.460938 10.453125 15.113281 C 10.796875 14.34375 10.628906 14.261719 10.238281 15.007812 M 21.75 16.761719 C 21.75 16.949219 21.824219 17.023438 21.917969 16.929688 C 22.007812 16.839844 22.007812 16.6875 21.917969 16.59375 C 21.824219 16.5 21.75 16.574219 21.75 16.761719 M 22.152344 18.160156 C 22.222656 18.71875 22.382812 19.746094 22.507812 20.445312 C 22.730469 21.695312 22.730469 21.6875 22.632812 20.0625 C 22.574219 19.15625 22.414062 18.128906 22.273438 17.777344 C 22.054688 17.234375 22.039062 17.292969 22.152344 18.160156 M 9.25 17.777344 C 9.25 17.964844 9.324219 18.039062 9.417969 17.945312 C 9.507812 17.855469 9.507812 17.703125 9.417969 17.609375 C 9.324219 17.515625 9.25 17.589844 9.25 17.777344 M 9.039062 19.046875 C 9.039062 19.398438 9.097656 19.539062 9.164062 19.363281 C 9.234375 19.191406 9.234375 18.90625 9.164062 18.730469 C 9.097656 18.554688 9.039062 18.699219 9.039062 19.046875 M 12.582031 22.773438 C 12.675781 22.867188 12.824219 22.867188 12.917969 22.773438 C 13.007812 22.679688 12.933594 22.601562 12.75 22.601562 C 12.566406 22.601562 12.492188 22.679688 12.582031 22.773438 M 18.703125 22.777344 C 18.882812 22.851562 19.097656 22.839844 19.183594 22.757812 C 19.265625 22.671875 19.117188 22.613281 18.855469 22.625 C 18.5625 22.636719 18.503906 22.695312 18.703125 22.777344 M 14.933594 23.039062 C 15.375 23.097656 16.164062 23.097656 16.683594 23.042969 C 17.199219 22.988281 16.835938 22.941406 15.875 22.941406 C 14.914062 22.9375 14.488281 22.984375 14.933594 23.039062 "
        />
      </g>
    </svg>