<svg version="1.0" xmlns="http://www.w3.org/2000/svg" viewBox="0 0 1680.000000 945.000000"
 preserveAspectRatio="xMidYMid meet">

<g transform="translate(0.000000,945.000000) scale(0.100000,-0.100000)"
fill="#3c3c3c" stroke="none">
<path d="M8855 9429 c-4 -11 -13 -18 -20 -15 -9 3 -20 -18 -35 -67 -13 -40
-30 -83 -39 -97 -8 -14 -16 -27 -16 -30 0 -3 -9 -17 -19 -32 -21 -32 -48 -117
-40 -129 6 -11 -66 -79 -83 -79 -8 0 -16 -8 -20 -17 -4 -10 -18 -36 -33 -58
-15 -22 -25 -46 -23 -52 3 -7 -4 -28 -15 -45 -12 -20 -22 -59 -25 -98 -3 -43
-14 -81 -30 -112 -14 -25 -23 -48 -21 -51 3 -2 0 -33 -6 -68 -6 -35 -12 -85
-14 -111 -1 -30 -9 -55 -21 -69 -11 -12 -14 -19 -6 -14 11 6 13 3 9 -13 -3
-12 -1 -23 5 -25 6 -2 10 -33 8 -78 0 -40 -1 -85 -2 -99 0 -14 5 -74 11 -135
6 -60 11 -196 13 -301 1 -137 6 -195 15 -206 17 -22 60 -198 47 -198 -2 0 -36
16 -76 35 -55 26 -87 35 -126 35 -61 0 -78 -15 -28 -24 21 -4 35 -13 35 -21 0
-8 4 -15 9 -15 5 0 12 -7 15 -16 3 -8 2 -12 -3 -9 -5 3 -12 1 -15 -4 -4 -5 3
-12 14 -16 24 -8 26 -21 5 -29 -8 -3 -15 -1 -15 4 0 6 -7 10 -15 10 -8 0 -21
16 -29 35 -10 24 -20 33 -30 29 -25 -9 -39 5 -24 24 8 11 4 10 -11 -3 -13 -11
-32 -38 -42 -60 -22 -49 -42 -258 -37 -370 4 -77 35 -245 47 -255 7 -6 7 -9
19 -321 5 -136 12 -251 15 -257 4 -5 18 -8 33 -6 21 2 25 -1 21 -17 -3 -10 -2
-19 2 -19 17 0 49 32 55 56 4 15 20 39 37 55 16 15 29 32 29 38 0 14 47 44 58
37 27 -17 22 -136 -5 -136 -20 0 -52 -40 -53 -66 0 -12 -9 -31 -20 -44 -11
-13 -20 -29 -20 -37 0 -10 -7 -13 -22 -9 -13 3 -17 3 -10 0 14 -6 7 -69 -10
-91 -13 -17 -7 -24 77 -93 107 -87 165 -106 253 -81 31 9 32 9 26 -16 -4 -14
-2 -28 4 -32 9 -5 17 -89 13 -147 0 -11 -10 -30 -21 -42 -17 -18 -18 -25 -8
-42 10 -16 10 -22 0 -32 -11 -11 -16 -10 -26 5 -11 14 -15 15 -19 4 -4 -12 16
-33 56 -59 7 -4 7 -23 -1 -60 -12 -60 -10 -67 13 -45 18 19 19 34 3 40 -10 4
-10 7 0 15 7 5 10 16 6 25 -6 18 3 21 30 11 17 -7 22 -34 6 -34 -17 0 -12 -70
5 -76 12 -5 13 -9 4 -20 -7 -8 -9 -17 -6 -21 4 -3 2 -12 -4 -19 -8 -10 -5 -12
18 -8 27 5 27 5 8 -10 -17 -13 -18 -15 -3 -16 10 0 22 -9 28 -21 14 -25 3 -79
-15 -79 -7 0 -15 -4 -17 -8 -1 -5 -41 -35 -88 -67 -47 -32 -103 -75 -125 -95
-22 -20 -57 -49 -78 -64 -21 -16 -68 -66 -105 -113 -36 -46 -111 -130 -167
-186 -97 -99 -154 -181 -212 -307 -12 -25 -39 -68 -62 -95 -22 -27 -57 -81
-76 -120 -62 -126 -46 -225 49 -318 141 -135 182 -163 308 -208 48 -17 88 -35
88 -39 0 -15 -49 -49 -134 -94 -139 -73 -211 -125 -361 -262 -145 -133 -222
-218 -269 -299 -15 -26 -46 -63 -68 -83 -40 -36 -68 -79 -68 -106 0 -8 -24
-38 -53 -65 -55 -52 -144 -204 -166 -286 -6 -22 -20 -133 -31 -246 -19 -202
-20 -208 -61 -300 -52 -119 -67 -172 -79 -284 -16 -149 -12 -706 6 -912 l16
-182 -26 -78 c-14 -43 -26 -81 -26 -86 0 -4 2219 -7 4930 -7 l4930 0 0 1934 0
1934 -24 15 c-37 25 -146 57 -191 57 -95 0 -282 -58 -437 -136 -37 -19 -73
-34 -79 -34 -7 0 -60 46 -118 103 -58 57 -133 123 -166 147 -33 25 -82 64
-110 88 -103 91 -201 141 -306 156 -59 9 -261 -17 -366 -46 -85 -24 -144 -27
-185 -10 -14 6 -54 47 -87 91 -94 124 -139 164 -281 252 -30 19 -83 60 -119
91 -35 31 -90 71 -122 88 -110 58 -271 73 -380 35 -23 -8 -45 -15 -49 -15 -4
0 -10 39 -12 88 -4 60 -15 115 -36 177 -44 133 -145 344 -188 393 -59 70 -344
248 -457 286 -17 5 -18 13 -12 59 8 56 9 189 2 247 -3 19 -5 46 -6 60 -2 24
-2 24 -16 6 -15 -19 -15 -19 -15 1 0 12 4 24 9 27 20 13 51 97 45 123 -5 18
-4 24 5 19 6 -4 4 8 -6 28 -17 36 -42 52 -28 19 12 -27 11 -83 0 -80 -5 1 -9
16 -8 32 8 99 -69 -227 -87 -370 -6 -49 -17 -124 -25 -165 -8 -41 -17 -96 -21
-122 -3 -27 -10 -48 -15 -48 -5 0 -9 -13 -9 -30 0 -21 -5 -30 -16 -30 -13 0
-14 -3 -4 -15 16 -19 5 -49 -15 -41 -17 6 -19 1 -6 -23 7 -11 4 -29 -9 -56
-10 -22 -19 -34 -19 -27 -1 9 -8 8 -26 -5 -30 -22 -40 -44 -24 -54 6 -4 8 -12
4 -18 -5 -9 -11 -7 -21 6 -17 23 -33 4 -26 -33 3 -16 -1 -26 -12 -30 -9 -3
-16 -17 -16 -30 0 -18 -6 -24 -21 -24 -11 0 -18 -4 -14 -9 3 -5 1 -12 -5 -16
-5 -3 -10 -15 -10 -26 0 -10 -5 -19 -11 -19 -5 0 -7 -5 -4 -11 4 -6 0 -9 -11
-7 -13 2 -20 -4 -22 -19 -2 -13 2 -23 9 -23 7 0 9 -3 5 -7 -4 -5 -13 -8 -19
-8 -7 0 -13 -6 -13 -12 -3 -26 -4 -28 -13 -14 -13 21 -29 5 -37 -37 -4 -20
-16 -43 -26 -51 -11 -7 -17 -19 -14 -27 3 -8 1 -14 -5 -14 -6 0 -7 -4 -4 -10
3 -5 0 -10 -8 -10 -11 0 -14 -11 -12 -41 2 -33 -1 -43 -16 -46 -11 -3 -19 -9
-19 -14 0 -5 -11 -7 -25 -3 -25 6 -35 -8 -15 -21 16 -10 12 -38 -5 -31 -9 3
-15 0 -15 -9 0 -8 6 -15 13 -15 7 -1 5 -6 -5 -14 -10 -7 -18 -18 -18 -25 0 -6
-4 -11 -9 -11 -5 0 -8 -11 -6 -25 1 -14 -1 -25 -4 -25 -3 0 -12 -13 -19 -28
-12 -27 -32 -42 -77 -57 -19 -6 -19 -7 -2 -16 25 -14 21 -25 -13 -39 -60 -25
-46 -36 17 -13 6 3 16 -5 22 -16 10 -18 9 -19 -24 -14 -24 4 -35 2 -35 -6 0
-8 8 -10 23 -6 19 6 19 4 -5 -12 -24 -17 -25 -20 -10 -29 15 -10 15 -11 -3
-11 -47 1 -75 -4 -75 -13 0 -5 17 -7 37 -4 42 5 35 -13 -7 -19 -13 -2 -26 -10
-28 -18 -3 -8 -10 -17 -16 -21 -7 -5 -6 -8 4 -8 9 0 26 7 39 16 23 16 23 16
16 -7 -8 -29 -43 -58 -67 -59 -10 0 -18 -4 -18 -10 0 -5 7 -10 15 -10 8 0 15
-5 15 -11 0 -11 -9 -10 -70 6 -23 6 -24 5 -7 -8 24 -20 21 -27 -9 -27 l-26 0
23 -20 c13 -10 18 -19 12 -20 -7 0 -13 -7 -13 -15 0 -20 -4 -19 -48 9 -20 13
-47 27 -59 31 -19 5 -22 3 -16 -11 5 -14 3 -15 -15 -5 -30 16 -34 14 -20 -9 7
-11 21 -20 30 -20 10 0 18 -7 18 -15 0 -17 -16 -20 -25 -5 -7 11 -25 4 -25 -9
0 -5 10 -12 23 -16 l22 -8 -23 -4 c-13 -3 -30 1 -38 7 -9 8 -14 9 -14 2 0 -6
5 -14 10 -17 21 -13 9 -25 -12 -14 -13 7 -37 15 -56 20 -28 6 -35 4 -49 -17
-19 -29 -29 -30 -36 -4 -4 15 0 20 16 20 19 1 17 3 -8 14 -20 9 -33 10 -40 3
-7 -6 -6 -11 3 -14 14 -5 17 -43 2 -43 -5 0 -14 9 -21 21 -11 21 -11 21 -24
-5 -8 -15 -11 -34 -8 -44 6 -15 5 -15 -11 -3 -9 8 -15 20 -12 27 3 7 1 16 -4
19 -5 3 -7 25 -4 49 4 24 2 52 -4 62 -9 15 -10 12 -10 -21 0 -70 -1 -72 -22
-46 -22 25 -26 21 -10 -10 8 -15 7 -19 -4 -19 -10 0 -13 -6 -10 -15 4 -8 3
-23 0 -32 -5 -13 -9 -14 -19 -4 -9 9 -9 14 2 20 9 6 10 11 2 15 -6 4 -9 12 -6
17 4 5 1 9 -6 9 -6 0 -18 8 -26 18 -12 15 -13 13 -7 -20 3 -21 4 -38 1 -38
-13 0 -38 70 -32 89 4 12 2 21 -4 21 -6 0 -11 -7 -11 -15 0 -8 -6 -14 -12 -12
-8 1 -12 -7 -10 -21 1 -15 -2 -22 -10 -20 -7 3 -14 10 -14 16 -1 7 -2 19 -3
27 -1 10 -12 15 -37 15 -21 0 -33 4 -29 10 3 5 1 10 -6 10 -7 0 -9 8 -5 20 3
11 9 29 12 40 4 11 2 20 -3 20 -5 0 -9 -9 -10 -19 -1 -17 -35 -61 -47 -61 -2
0 -2 9 1 20 4 14 0 20 -11 20 -21 0 -20 19 3 44 10 12 31 44 46 71 38 71 54
86 80 79 16 -4 23 -1 22 8 -2 46 4 67 17 62 8 -3 17 -1 20 5 4 6 13 8 21 5 9
-4 17 5 23 28 7 28 13 33 36 31 14 -1 24 2 22 6 -3 4 11 16 32 25 56 27 92 85
66 106 -9 8 -14 9 -14 2 0 -16 -79 -7 -93 11 -13 16 -161 32 -151 16 3 -5 1
-9 -5 -9 -5 0 -11 5 -13 12 -3 7 -25 13 -50 14 -26 1 -51 4 -56 8 -6 3 -65 8
-132 11 -81 4 -134 11 -156 21 -18 9 -46 14 -61 11 -15 -2 -22 -2 -15 0 7 3
10 8 7 13 -3 5 3 11 14 15 15 5 20 15 19 45 0 41 -6 48 -24 30 -7 -7 -19 -3
-38 15 -15 14 -31 25 -36 25 -5 0 -13 6 -17 14 -4 8 -25 21 -47 30 -30 13 -37
20 -33 36 6 22 -8 37 -18 20 -8 -13 -35 -13 -35 -1 0 5 8 12 18 14 12 3 11 5
-6 6 -20 1 -21 4 -12 21 9 16 8 20 -7 21 -10 1 0 5 22 10 59 12 157 12 265 -1
52 -6 160 -10 240 -9 564 5 637 7 663 18 37 15 37 15 37 -12 0 -36 10 -39 44
-11 26 23 36 26 80 20 47 -5 51 -3 83 29 18 19 33 39 33 44 0 6 7 19 15 29 20
23 87 19 78 -5 -3 -8 0 -19 8 -24 23 -14 30 -10 19 11 -18 33 6 59 46 50 l33
-8 -21 28 c-11 16 -18 35 -15 43 3 9 -7 27 -24 43 -35 33 -38 52 -5 31 13 -9
27 -13 30 -10 10 11 -35 52 -50 46 -8 -3 -14 1 -14 11 0 9 -7 16 -15 16 -7 0
-18 6 -22 14 -12 20 -53 40 -53 25 0 -8 -4 -8 -15 1 -8 7 -15 9 -15 6 0 -4 -9
-2 -20 4 -12 6 -20 7 -20 1 0 -5 6 -12 13 -15 6 -4 -3 -4 -20 -1 -21 3 -33 0
-33 -7 0 -6 -8 -4 -18 5 -26 24 -39 21 -17 -3 11 -12 13 -20 6 -20 -6 0 -17
11 -23 25 -6 14 -15 25 -20 25 -5 0 -7 4 -4 8 2 4 -4 13 -15 20 -16 10 -19 9
-19 -6 0 -9 9 -23 20 -30 11 -7 20 -18 20 -24 0 -9 -3 -9 -12 0 -7 7 -19 12
-28 12 -9 0 -34 17 -54 37 -37 37 -38 37 -31 10 9 -35 -10 -36 -37 -2 -11 14
-29 30 -41 36 -16 8 -12 1 13 -27 19 -21 26 -31 14 -21 -11 9 -25 17 -30 17
-5 1 -22 19 -39 41 -51 68 -75 95 -69 77 5 -14 0 -18 -22 -18 -22 0 -25 -3
-16 -12 17 -17 15 -33 -3 -18 -8 7 -15 19 -15 26 0 8 -7 14 -16 14 -9 0 -35
14 -59 31 -38 28 -75 33 -60 9 3 -5 -13 -3 -36 5 -23 8 -59 15 -80 15 -32 0
-39 4 -39 19 0 11 -5 23 -10 26 -7 4 -9 -3 -4 -22 6 -27 6 -27 -10 -8 -13 15
-19 17 -23 7 -4 -10 -8 -10 -19 -1 -10 8 -14 8 -14 0 0 -6 -5 -11 -11 -11 -5
0 -8 4 -5 9 3 5 -3 11 -14 14 -23 6 -24 3 -8 -26 10 -20 10 -21 -6 -8 -13 11
-19 12 -25 3 -4 -6 -23 -15 -41 -18 -34 -7 -35 -7 -18 13 16 18 16 20 1 36
-13 13 -14 19 -3 31 7 9 22 16 34 16 15 0 17 3 8 9 -11 6 -10 10 5 16 10 5 21
7 26 7 4 -1 7 5 7 13 0 8 6 15 13 15 6 0 25 18 41 40 21 28 40 42 63 46 18 3
36 10 39 15 3 5 13 9 23 9 26 0 49 29 32 39 -9 6 -9 13 0 34 10 22 9 31 -5 51
-9 14 -16 31 -16 39 0 8 -10 19 -22 24 -13 6 -67 47 -120 92 -54 45 -106 83
-115 85 -10 2 -35 11 -55 20 -45 19 -104 10 -137 -21 -21 -20 -83 -43 -114
-43 -8 0 -17 -4 -19 -9 -4 -11 -255 -16 -280 -6 -13 5 -18 2 -18 -9 0 -9 -7
-16 -15 -16 -10 0 -15 10 -15 30 0 17 -4 30 -10 30 -20 0 -1 54 48 135 24 38
130 125 154 125 19 0 98 73 98 90 0 17 -35 16 -67 -3 -20 -11 -40 -16 -57 -11
-20 5 -31 0 -50 -23 -14 -15 -26 -33 -26 -40 0 -6 -8 -14 -17 -17 -10 -4 -42
-37 -70 -74 -59 -75 -126 -144 -193 -198 -24 -20 -52 -48 -61 -63 -9 -14 -53
-59 -97 -100 -45 -41 -82 -81 -82 -88 0 -7 -4 -13 -10 -13 -5 0 -16 -15 -24
-34 -8 -18 -19 -37 -25 -40 -6 -4 -9 -12 -6 -17 4 -5 1 -9 -4 -9 -6 0 -11 -13
-11 -30 0 -16 3 -30 8 -30 4 0 12 -10 17 -22 8 -19 18 -23 55 -23 25 0 57 3
72 6 18 5 31 3 39 -7 10 -13 15 -12 35 7 13 12 27 19 31 16 3 -4 1 -7 -6 -7
-7 0 -10 -4 -6 -9 5 -9 24 -13 109 -25 10 -1 24 -10 31 -19 15 -21 26 -22 18
-1 -4 12 0 14 19 9 13 -3 66 -7 116 -8 69 -1 92 -5 92 -15 0 -10 -8 -12 -29
-7 -20 4 -38 1 -54 -9 -13 -9 -26 -13 -30 -10 -3 4 -14 3 -24 0 -16 -7 -15 -9
7 -22 25 -15 25 -15 -12 -9 -30 5 -39 2 -51 -15 -14 -20 -15 -20 -22 -3 -5 10
-7 21 -7 26 4 15 -17 6 -22 -11 -7 -21 -56 -51 -72 -45 -7 2 -11 -4 -10 -13 1
-19 -59 -31 -78 -15 -7 6 -17 6 -26 1 -8 -6 -25 -10 -37 -10 -14 0 -23 -6 -23
-15 0 -9 -6 -12 -15 -9 -11 5 -12 11 -5 24 16 30 12 35 -9 13 -11 -12 -26 -24
-33 -27 -10 -5 -10 -7 0 -12 15 -7 6 -24 -14 -24 -8 0 -13 4 -10 9 12 18 -40
-3 -74 -31 -19 -15 -43 -28 -52 -28 -10 0 -18 -4 -18 -10 0 -16 -57 -12 -64 5
-3 8 -17 20 -31 25 -14 5 -30 22 -36 37 -7 16 -13 23 -16 16 -7 -20 -23 -15
-23 7 0 20 -45 73 -72 83 -9 4 -9 6 3 6 10 1 15 9 14 24 -2 12 -8 21 -15 19
-7 -2 -20 0 -29 4 -9 4 -18 8 -21 9 -3 2 -15 6 -26 10 -19 6 -21 12 -16 47 5
38 3 41 -15 36 -14 -4 -28 3 -44 23 -13 16 -33 29 -44 29 -11 0 -28 9 -37 19
-14 17 -14 20 -1 34 9 8 12 20 9 26 -10 16 -26 13 -26 -4 0 -8 -4 -15 -10 -15
-17 0 -50 39 -50 60 0 12 -9 24 -22 29 -29 11 -38 6 -39 -22 0 -21 -1 -21 -8
-2 -8 19 -8 19 -20 0 -10 -17 -11 -13 -9 28 3 40 1 47 -13 44 -12 -3 -15 2
-11 22 3 14 12 31 21 38 14 11 14 12 -1 13 -10 0 -18 3 -18 6 0 12 24 50 39
61 11 8 12 12 4 13 -7 0 -13 10 -13 23 0 35 -15 49 -56 56 -27 4 -42 13 -49
29 -11 24 -43 29 -78 11 -15 -9 -22 -9 -25 -1 -2 7 -15 9 -33 5 -25 -5 -29 -2
-29 16 0 14 -6 21 -20 21 -10 0 -23 6 -27 14 -4 7 -18 18 -30 25 -26 13 -31
41 -8 41 11 0 15 11 15 40 0 27 -4 40 -12 39 -32 -4 -44 4 -60 39 -18 38 -30
202 -16 202 5 0 8 18 8 40 0 22 4 40 9 40 8 0 26 76 22 94 -1 5 4 13 11 18 10
6 10 10 -2 19 -11 8 -12 12 -3 15 7 3 15 22 19 42 4 20 10 42 14 47 5 6 10 26
12 45 2 23 8 34 16 32 8 -1 11 2 8 7 -4 5 -1 13 5 16 5 4 8 14 5 22 -3 8 0 21
8 29 19 18 26 18 26 -1 0 -8 5 -15 10 -15 14 0 13 23 -2 38 -9 9 -9 15 0 24 7
7 12 20 12 30 0 10 5 18 10 18 6 0 10 -18 10 -40 0 -22 5 -40 10 -40 6 0 10
-9 10 -19 0 -10 7 -21 15 -25 8 -3 15 -1 15 4 0 18 49 10 60 -9 14 -26 13 -38
-2 -23 -15 15 -48 16 -48 2 0 -5 10 -10 23 -10 13 0 28 -5 35 -12 9 -9 12 -9
12 1 0 9 11 12 38 9 20 -3 45 0 54 6 13 8 21 5 38 -16 11 -15 27 -25 34 -22 7
3 25 0 41 -6 l28 -11 -21 -15 c-12 -8 -22 -22 -22 -30 0 -16 35 -11 79 12 30
16 153 19 179 4 9 -5 53 -19 97 -30 108 -29 310 -27 368 2 22 11 45 17 53 14
8 -3 14 -1 14 4 0 9 -40 14 -107 13 -13 0 -23 5 -23 11 0 6 -5 4 -10 -4 -6 -9
-13 -11 -17 -5 -5 6 -21 11 -38 13 -16 2 -35 10 -42 19 -6 8 -16 12 -21 9 -6
-3 -12 -2 -14 2 -1 5 -20 15 -42 24 -33 13 -37 17 -24 29 8 7 13 21 11 30 -3
9 0 20 6 23 7 5 11 -2 11 -16 0 -21 2 -21 30 10 17 18 30 35 30 38 0 2 -12 9
-27 15 -46 19 -7 23 71 8 62 -12 110 -14 256 -10 32 1 39 6 68 56 18 30 30 60
27 65 -10 17 28 11 61 -9 17 -10 42 -39 56 -63 l25 -45 -26 4 -26 3 25 -11
c14 -7 34 -13 45 -14 30 -2 70 -31 100 -75 16 -23 36 -40 46 -40 20 0 26 -24
9 -35 -5 -3 -10 -14 -10 -24 0 -10 -7 -24 -15 -31 -11 -9 -12 -15 -2 -25 10
-10 16 -9 36 6 13 11 34 19 47 19 12 0 26 5 29 10 9 15 36 12 57 -6 14 -14 20
-14 33 -4 10 9 31 11 63 6 27 -3 41 -2 34 3 -9 5 1 8 27 8 23 0 41 -4 41 -8 0
-5 5 -9 10 -9 6 0 10 6 9 13 -2 12 0 18 24 82 18 45 11 439 -7 468 -12 18 -28
72 -30 99 -1 4 -7 13 -13 20 -7 6 -13 17 -13 24 0 6 -10 14 -22 18 -19 5 -21
8 -8 16 12 8 11 10 -7 10 -13 0 -23 5 -23 10 0 6 7 10 15 10 23 0 18 47 -7 81
-13 16 -37 46 -55 66 -17 21 -27 40 -22 44 5 3 -10 5 -33 5 -38 -1 -43 1 -41
21 2 18 -6 23 -50 35 l-52 13 45 7 c26 4 9 5 -39 2 -47 -3 -91 -10 -98 -16 -9
-7 -13 -7 -13 1 0 6 -5 11 -11 11 -6 0 -8 -9 -4 -22 5 -17 4 -19 -3 -9 -7 10
-20 12 -48 7 -22 -4 -49 -9 -61 -11 -11 -2 -32 -6 -45 -9 -20 -6 -20 -5 5 9
38 22 34 39 -5 18 -18 -9 -49 -18 -68 -19 -19 -1 -46 -5 -60 -9 -24 -7 -24 -7
-5 8 11 9 37 17 58 17 20 0 37 4 37 8 0 5 -25 5 -56 1 -31 -4 -63 -5 -71 -2
-8 3 -19 0 -24 -8 -8 -12 -10 -12 -18 1 -8 11 -19 12 -58 4 -53 -10 -83 -8
-83 7 0 6 8 8 18 5 9 -3 24 -1 32 4 12 8 9 10 -12 10 -34 0 -79 20 -72 32 5 8
-6 9 -107 10 -48 1 -93 -19 -139 -60 -14 -12 -29 -21 -35 -19 -5 2 -16 -4 -25
-13 -21 -24 -99 -50 -135 -46 -41 4 -120 -26 -129 -50 -4 -10 8 -7 37 8 23 12
51 23 62 25 11 2 -7 -11 -40 -27 -33 -17 -65 -37 -71 -45 -6 -8 -16 -15 -23
-15 -6 0 -11 -7 -11 -15 0 -8 -4 -15 -10 -15 -13 0 -13 13 1 27 8 8 8 17 0 32
-12 22 -2 28 16 10 7 -7 12 -6 16 5 4 9 1 16 -5 16 -6 0 -1 8 11 19 l21 19
-22 6 c-19 5 -20 8 -8 15 12 8 12 16 3 43 -14 40 -6 88 14 88 10 0 14 9 12 28
-2 30 29 92 47 92 17 0 23 21 17 55 -4 18 -2 26 4 22 6 -4 16 6 22 21 6 15 32
49 56 75 25 26 45 54 45 61 0 8 6 17 13 19 7 3 5 6 -5 6 -15 1 -12 11 18 61
19 33 32 65 28 71 -4 8 1 9 15 4 15 -4 21 -2 21 8 0 9 6 18 13 20 8 4 8 6 -2
6 -10 1 -8 8 9 26 13 14 28 25 32 25 5 0 16 6 23 13 36 31 44 35 62 31 10 -3
29 4 42 15 21 18 33 22 56 21 14 -1 65 36 65 46 0 7 14 22 30 34 25 18 30 19
30 6 0 -9 5 -16 11 -16 5 0 7 5 4 11 -9 14 26 7 43 -8 18 -17 41 -18 24 -1
-16 16 -15 31 1 21 15 -9 98 -11 112 -2 6 3 48 19 95 34 83 26 87 29 165 114
101 108 138 136 158 117 11 -12 16 -9 33 15 10 16 25 29 32 29 7 0 15 7 19 16
3 9 9 11 12 6 8 -12 124 3 129 17 2 6 16 11 32 11 15 0 30 6 33 14 7 19 66 31
80 17 18 -18 48 -13 54 9 3 11 10 20 16 20 6 0 19 7 29 17 17 15 18 15 18 -5
0 -12 1 -25 2 -29 1 -5 -11 -11 -28 -14 -34 -8 -16 -11 63 -11 36 0 64 7 88
21 20 12 45 21 56 21 10 0 19 4 19 8 0 5 29 8 65 8 36 0 65 -3 65 -8 0 -13
105 -9 118 4 10 10 17 10 32 0 11 -7 20 -9 20 -4 0 4 16 8 35 8 19 0 35 -4 35
-8 0 -4 16 -14 35 -22 19 -8 35 -22 35 -30 0 -10 6 -13 16 -9 10 4 22 -1 30
-12 12 -16 14 -17 20 -2 8 21 24 22 24 2 0 -7 8 -19 18 -24 13 -8 14 -13 4
-19 -7 -5 -10 -16 -7 -24 11 -29 -90 -42 -135 -18 -12 6 -24 9 -27 6 -12 -12
55 -29 115 -29 52 -1 62 -4 62 -18 0 -10 6 -20 13 -23 10 -5 10 -7 0 -12 -17
-8 -16 -24 1 -24 8 0 27 -15 42 -32 15 -18 29 -32 30 -30 10 6 21 0 50 -27 35
-33 69 -47 79 -31 4 6 16 8 27 4 15 -4 18 -3 13 6 -6 10 2 11 31 6 58 -9 58
-9 77 -1 13 5 17 2 17 -12 0 -10 -5 -24 -12 -31 -9 -9 -8 -12 6 -12 15 0 16
-3 6 -15 -10 -13 -9 -15 9 -15 12 0 24 -7 27 -15 5 -12 13 -11 54 5 l48 19 11
-31 c6 -17 11 -39 11 -49 0 -11 5 -19 10 -19 6 0 8 11 4 27 -7 26 -7 27 10 10
10 -9 24 -17 32 -17 8 0 14 -7 14 -15 0 -8 5 -15 10 -15 6 0 10 5 10 10 0 18
15 10 59 -30 23 -22 40 -44 36 -50 -3 -6 7 -24 24 -41 30 -29 43 -57 20 -43
-6 3 1 -12 15 -35 14 -22 26 -45 26 -50 0 -5 7 -14 15 -21 10 -9 12 -17 5 -30
-7 -13 -6 -20 3 -23 6 -2 9 -8 5 -12 -11 -12 -26 4 -33 35 -8 38 -30 54 -23
16 5 -26 -6 -36 -16 -13 -3 6 -2 -6 1 -28 4 -22 7 -48 7 -57 0 -10 4 -18 8
-18 5 0 4 -9 -2 -20 -8 -15 -5 -30 11 -65 13 -27 27 -44 34 -41 16 6 27 -19
57 -116 23 -79 34 -95 40 -58 5 32 22 29 29 -5 4 -16 7 -25 8 -20 3 26 19 -23
19 -63 1 -25 5 -48 10 -51 16 -12 31 -67 37 -146 4 -44 13 -111 21 -150 8 -38
21 -110 29 -160 23 -139 50 -263 59 -272 5 -4 5 17 1 47 -22 162 -26 430 -7
579 11 95 12 128 3 142 -7 12 -7 19 -1 19 5 0 10 9 10 20 0 11 -4 20 -8 20
-10 0 -8 108 3 132 4 9 4 22 0 28 -3 5 -3 15 1 22 10 17 8 92 -4 114 -5 10 -8
33 -7 49 8 89 15 221 17 305 2 52 6 97 10 100 4 3 9 25 10 48 2 24 8 42 15 42
8 0 11 26 11 81 0 44 5 86 12 94 8 10 8 14 -1 17 -15 5 -21 88 -7 88 7 0 6 5
-1 14 -6 7 -13 33 -15 56 -3 29 -1 39 5 29 7 -11 9 -11 9 -1 0 8 -9 25 -20 39
-21 27 -27 48 -10 38 16 -10 12 2 -12 40 -13 19 -28 35 -34 35 -7 0 -14 7 -18
15 -3 8 -14 15 -24 15 -24 0 -49 26 -31 32 9 3 8 10 -2 26 l-14 22 -2012 0
-2012 0 -6 -21z m2425 -84 c0 -8 -2 -15 -4 -15 -2 0 -6 7 -10 15 -3 8 -1 15 4
15 6 0 10 -7 10 -15z m-218 -77 c-7 -7 -12 -8 -12 -2 0 14 12 26 19 19 2 -3
-1 -11 -7 -17z m343 12 c3 -5 -1 -10 -9 -10 -8 0 -18 5 -21 10 -3 6 1 10 9 10
8 0 18 -4 21 -10z m135 -20 c0 -5 -12 -10 -27 -9 -25 0 -26 1 -8 9 27 12 35
12 35 0z m500 -106 c0 -8 -5 -12 -10 -9 -6 4 -8 11 -5 16 9 14 15 11 15 -7z
m-65 -51 c3 -16 10 -44 15 -62 5 -19 8 -36 6 -38 -8 -8 -33 46 -40 85 -7 47
10 60 19 15z m22 5 c-3 -8 -6 -5 -6 6 -1 11 2 17 5 13 3 -3 4 -12 1 -19z m-83
-23 c-6 -16 -24 -21 -24 -7 0 11 11 22 21 22 5 0 6 -7 3 -15z m146 -31 c0 -8
5 -12 11 -9 6 4 9 -4 7 -22 -3 -30 -16 -45 -31 -36 -5 3 -3 9 4 14 11 6 11 11
1 21 -14 14 -16 48 -2 48 6 0 10 -7 10 -16z m-1568 -26 c-7 -7 -10 -5 -7 8 5
29 6 30 12 16 3 -8 1 -18 -5 -24z m1418 2 c0 -5 -2 -10 -4 -10 -3 0 -8 5 -11
10 -3 6 -1 10 4 10 6 0 11 -4 11 -10z m220 -15 c0 -8 -4 -15 -10 -15 -5 0 -10
7 -10 15 0 8 5 15 10 15 6 0 10 -7 10 -15z m-100 -79 c0 -3 -8 -3 -17 0 -15 5
-15 3 1 -10 15 -12 16 -16 5 -16 -8 0 -20 9 -27 20 -7 11 -19 20 -28 20 -11 0
-13 6 -9 20 4 13 2 20 -7 20 -10 0 -11 2 0 8 8 6 25 -3 47 -24 19 -18 35 -35
35 -38z m-2000 -90 c0 -3 -4 -8 -10 -11 -5 -3 -10 -1 -10 4 0 6 5 11 10 11 6
0 10 -2 10 -4z m2305 -36 c-3 -5 -11 -10 -16 -10 -6 0 -7 5 -4 10 3 6 11 10
16 10 6 0 7 -4 4 -10z m-2415 -30 c0 -5 -9 -10 -20 -10 -11 0 -20 5 -20 10 0
6 9 10 20 10 11 0 20 -4 20 -10z m2700 -161 c0 -6 -4 -7 -10 -4 -5 3 -10 11
-10 16 0 6 5 7 10 4 6 -3 10 -11 10 -16z m40 -238 c0 -6 -4 -13 -10 -16 -5 -3
-10 1 -10 9 0 9 5 16 10 16 6 0 10 -4 10 -9z m20 -31 c0 -5 -8 -10 -17 -10
-15 0 -16 2 -3 10 19 12 20 12 20 0z m20 -105 c0 -5 -7 3 -15 19 -8 15 -15 38
-15 50 1 13 6 7 15 -19 8 -22 15 -44 15 -50z m-2880 -214 c0 -5 -11 -11 -25
-13 -28 -6 -35 8 -7 15 28 8 32 7 32 -2z m-65 -31 c-3 -5 -14 -10 -23 -10 -15
0 -15 2 -2 10 20 13 33 13 25 0z m174 -4 c9 -10 8 -15 -3 -19 -11 -4 -13 -1
-9 10 5 12 2 15 -10 10 -9 -3 -17 -2 -17 3 0 15 26 12 39 -4z m-70 -10 c24
-13 24 -14 -23 -24 -26 -5 -56 -7 -68 -4 -17 4 -14 8 18 23 46 22 43 22 73 5z
m111 -30 c0 -2 -9 -6 -20 -9 -11 -3 -20 -1 -20 4 0 5 9 9 20 9 11 0 20 -2 20
-4z m120 -6 c0 -5 -7 -10 -15 -10 -8 0 -15 5 -15 10 0 6 7 10 15 10 8 0 15 -4
15 -10z m-270 -20 c-14 -4 -34 -8 -45 -8 -16 0 -15 2 5 8 14 4 34 8 45 8 16 0
15 -2 -5 -8z m103 -7 c-7 -2 -19 -2 -25 0 -7 3 -2 5 12 5 14 0 19 -2 13 -5z
m892 -131 c-6 -6 -54 51 -54 63 0 6 13 -5 29 -24 16 -19 28 -37 25 -39z m-944
-68 c6 -8 22 -14 36 -14 13 0 22 -4 19 -9 -3 -5 9 -11 27 -14 17 -2 57 -12 87
-21 30 -10 75 -22 100 -29 25 -6 49 -17 53 -24 4 -7 25 -14 45 -14 20 -1 29
-3 19 -6 -26 -7 -10 -23 22 -23 16 0 43 -3 61 -6 l32 -7 -28 -13 c-26 -11 -27
-12 -6 -13 12 -1 22 -6 22 -12 0 -7 -7 -8 -17 -4 -10 4 -86 10 -168 13 -161 5
-308 -12 -429 -48 -34 -10 -81 -20 -106 -23 -25 -3 -37 -3 -27 0 21 6 22 22 2
29 -12 5 -12 8 2 22 15 16 15 17 0 20 -16 3 -21 17 -20 50 1 6 -3 12 -9 12 -5
0 -6 5 -3 10 3 6 1 10 -6 10 -25 0 2 13 38 19 21 4 38 12 38 18 0 13 13 28 24
28 4 0 15 8 25 18 10 9 26 17 35 17 10 0 24 6 30 14 6 7 29 13 51 13 22 0 45
-6 51 -13z m394 -230 c58 -18 113 -53 81 -54 -16 0 -15 -3 8 -21 34 -27 33
-42 -1 -23 -32 16 -67 19 -58 4 4 -7 -3 -7 -20 0 -14 5 -29 9 -33 9 -25 -4
-42 3 -42 17 0 14 -3 14 -15 4 -15 -12 -25 -12 -153 5 -27 4 -42 2 -38 -3 3
-6 -6 -13 -21 -17 -20 -5 -31 -2 -40 11 -11 15 -13 15 -19 1 -3 -10 -19 -16
-42 -17 -68 -1 -116 -15 -106 -31 3 -5 -2 -9 -10 -9 -9 0 -16 -6 -17 -12 0
-10 -2 -10 -5 -1 -3 7 -13 9 -21 6 -12 -5 -15 -2 -10 10 3 9 2 17 -3 17 -47 0
72 62 184 95 114 34 281 38 381 9z m175 -105 c0 -15 -14 -10 -42 15 -38 32
-35 39 7 15 19 -12 35 -25 35 -30z m-20 -31 c0 -6 -6 -5 -15 2 -8 7 -15 14
-15 16 0 2 7 1 15 -2 8 -4 15 -11 15 -16z m78 -25 c19 -21 31 -32 28 -25 -4 6
-3 12 3 12 9 0 33 -35 35 -50 0 -3 7 -4 14 -2 8 2 11 -1 7 -8 -4 -6 9 -26 30
-45 21 -21 33 -40 29 -47 -5 -8 -2 -9 9 -5 11 4 18 -1 22 -14 4 -11 4 -23 1
-26 -3 -4 -6 0 -6 8 -1 10 -4 9 -14 -4 -9 -12 -16 -14 -21 -8 -3 6 -1 11 5 11
7 0 8 6 1 18 -15 28 -159 166 -184 176 -13 5 -17 10 -10 13 7 2 9 11 6 19 -9
25 9 15 45 -23z m-1481 -35 c-3 -7 -5 -2 -5 12 0 14 2 19 5 13 2 -7 2 -19 0
-25z m1553 -186 c18 -18 20 -23 7 -19 -15 6 -16 3 -7 -13 13 -25 13 -27 -5
-27 -8 0 -13 2 -11 4 2 2 -11 21 -30 41 -19 20 -34 40 -34 45 0 15 56 -6 80
-31z m21 11 c13 -16 12 -17 -3 -4 -10 7 -18 15 -18 17 0 8 8 3 21 -13z m-2203
-281 c7 -32 12 -68 12 -81 0 -12 4 -19 10 -16 11 7 61 -46 53 -57 -2 -5 -17
-8 -34 -8 -19 0 -29 -5 -29 -15 0 -9 -9 -15 -21 -15 -24 0 -58 -37 -59 -63 0
-10 -4 -15 -10 -12 -5 3 -10 -3 -10 -13 0 -11 -7 -25 -15 -32 -9 -8 -15 -29
-15 -56 0 -45 20 -135 31 -144 4 -3 10 -32 13 -64 4 -39 13 -64 24 -72 13 -10
14 -16 5 -22 -7 -4 -16 -19 -22 -32 l-10 -25 0 28 c-1 15 -5 27 -11 27 -5 0
-10 -12 -11 -27 -1 -38 -28 70 -29 117 -1 19 -6 74 -12 122 -12 101 -1 201 38
331 23 77 72 187 84 187 4 0 11 -26 18 -58z m27 -22 c3 -5 1 -10 -4 -10 -6 0
-11 5 -11 10 0 6 2 10 4 10 3 0 8 -4 11 -10z m129 -379 c-7 -36 -10 -69 -7
-74 3 -4 -4 -18 -15 -30 -10 -12 -24 -31 -30 -42 -10 -18 -11 -15 -12 17 0 22
12 61 30 96 17 33 30 66 30 74 0 14 11 31 16 26 1 -2 -4 -32 -12 -67z m252
-56 c-3 -8 1 -20 8 -27 7 -7 11 -21 8 -32 -4 -15 -7 -12 -17 15 -10 32 -10 59
2 59 3 0 3 -7 -1 -15z m50 -132 c-10 -10 -19 5 -10 18 6 11 8 11 12 0 2 -7 1
-15 -2 -18z m54 -7 c0 -3 -4 -8 -10 -11 -5 -3 -10 -1 -10 4 0 6 5 11 10 11 6
0 10 -2 10 -4z m173 -73 c-7 -2 -19 -2 -25 0 -7 3 -2 5 12 5 14 0 19 -2 13 -5z
m47 -13 c0 -5 -2 -10 -4 -10 -3 0 -8 5 -11 10 -3 6 -1 10 4 10 6 0 11 -4 11
-10z m50 -10 c0 -5 -4 -10 -10 -10 -5 0 -10 5 -10 10 0 6 5 10 10 10 6 0 10
-4 10 -10z m-953 -67 c-3 -10 -5 -4 -5 12 0 17 2 24 5 18 2 -7 2 -21 0 -30z
m956 10 c-7 -2 -19 -2 -25 0 -7 3 -2 5 12 5 14 0 19 -2 13 -5z m-940 -52 c-4
-16 -8 -19 -14 -10 -4 7 -3 19 3 26 14 18 19 12 11 -16z m4837 -98 c-1 -24 -2
-26 -11 -10 -5 9 -7 22 -4 27 10 17 15 11 15 -17z m-3866 -65 c5 -21 3 -28 -9
-28 -16 0 -19 17 -9 45 8 19 9 18 18 -17z m3860 -1 c-3 -9 -10 -17 -15 -17
-11 0 -12 34 -2 43 11 12 24 -8 17 -26z m-4580 -66 c3 -4 20 -12 38 -16 18 -4
28 -9 23 -11 -6 -2 -9 -20 -7 -39 3 -27 1 -35 -11 -35 -9 0 -22 -8 -29 -18 -8
-11 -23 -17 -41 -15 -40 3 -105 25 -89 30 14 5 16 33 2 33 -14 0 -13 27 2 36
7 4 8 3 4 -4 -4 -7 -2 -12 4 -12 7 0 14 8 17 18 2 10 19 23 36 29 44 14 45 14
51 4z m4586 -23 c-1 -21 -27 -80 -31 -68 -4 16 -6 76 -2 83 10 16 33 6 33 -15z
m-4730 -33 c-7 -8 -17 -15 -22 -15 -11 0 14 29 26 30 5 0 3 -7 -4 -15z m2520
-123 c0 -14 -11 -21 -26 -15 -21 8 -17 23 6 23 11 0 20 -4 20 -8z m-170 -17
c0 -9 6 -12 15 -9 20 8 19 2 -6 -41 -19 -32 -23 -34 -34 -19 -9 13 -14 14 -19
5 -6 -9 -12 -7 -22 6 -13 17 -15 17 -24 1 -14 -23 -39 -12 -33 13 5 16 8 18
15 7 7 -10 11 -10 22 4 7 10 16 15 19 11 4 -3 7 -2 7 3 0 6 -5 15 -10 20 -7 7
2 11 30 12 29 1 40 -2 40 -13z m-258 -101 c-3 -15 -14 -29 -30 -35 -32 -12
-37 -7 -13 15 11 10 17 24 14 32 -3 9 2 14 15 14 15 0 18 -5 14 -26z m1030 10
c31 -10 45 -20 44 -32 0 -10 5 -16 15 -14 9 1 22 -5 29 -13 12 -15 0 -22 -14
-8 -4 4 -13 8 -19 8 -26 2 -108 28 -113 37 -5 8 1 38 9 38 2 0 24 -7 49 -16z
m-324 -31 c-2 -9 -8 -18 -15 -20 -7 -3 -9 3 -6 16 6 25 26 28 21 4z m257 -33
c-3 -5 -14 -10 -23 -9 -14 0 -13 2 3 9 27 11 27 11 20 0z m279 -15 c3 -8 1
-15 -4 -15 -6 0 -10 7 -10 15 0 8 2 15 4 15 2 0 6 -7 10 -15z m-229 -5 c3 -5
1 -10 -4 -10 -6 0 -11 5 -11 10 0 6 2 10 4 10 3 0 8 -4 11 -10z m-16 -32 c5
-13 5 -25 -1 -29 -5 -3 -6 -13 -2 -22 10 -28 -11 -19 -35 14 -22 30 -22 30 -2
19 21 -11 31 3 11 15 -12 7 -4 25 11 25 5 0 13 -10 18 -22z m-269 3 c0 -5 -19
-24 -42 -41 -24 -18 -34 -29 -23 -25 41 15 50 11 53 -24 2 -21 0 -31 -7 -27
-7 5 -8 1 -4 -9 4 -12 8 -13 13 -4 6 8 12 6 21 -10 16 -24 34 -29 25 -6 -5 14
3 15 54 9 56 -6 60 -5 53 12 -7 18 -6 18 11 2 21 -22 30 -23 22 -3 -3 10 1 15
12 15 10 0 24 6 30 12 10 10 14 8 18 -10 8 -29 24 -29 17 1 -4 21 -4 21 10 4
8 -10 19 -17 23 -16 24 6 68 -17 84 -43 17 -29 17 -29 24 -6 l6 23 19 -28 c13
-21 20 -25 25 -15 5 10 7 10 12 1 3 -7 12 -13 20 -13 8 0 14 -8 14 -17 0 -14
2 -15 9 -4 11 16 31 6 31 -16 0 -12 3 -13 15 -3 8 6 19 9 24 5 6 -3 8 0 5 8
-6 17 15 34 25 20 3 -5 14 -12 24 -16 13 -5 17 -1 17 16 0 12 4 18 8 12 4 -5
12 -10 17 -10 36 -2 96 -29 106 -48 7 -12 18 -28 26 -35 18 -18 16 -35 -6 -53
-21 -19 -51 -19 -228 1 -127 15 -138 13 -145 -25 -1 -11 -7 -23 -13 -27 -14
-11 -83 -10 -142 2 -28 5 -85 10 -127 11 -82 3 -99 8 -94 30 3 15 -1 15 -45 5
-24 -6 -28 -4 -25 11 2 14 14 17 58 18 30 0 58 -3 61 -8 8 -10 109 23 109 37
0 6 5 4 11 -4 9 -13 10 -13 6 0 -2 8 -12 14 -22 12 -10 -2 -21 1 -25 7 -7 13
-157 -5 -177 -21 -7 -6 -27 -2 -55 11 -23 10 -61 25 -83 32 -22 7 -45 17 -51
21 -7 5 -36 11 -65 15 -30 3 -59 10 -66 15 -7 5 -14 5 -17 -1 -7 -10 -50 -1
-83 17 -15 9 -16 12 -3 16 8 3 25 7 37 9 12 2 26 6 29 10 4 4 13 7 21 7 13 0
38 18 75 53 22 21 32 22 24 1 -5 -12 -1 -14 17 -8 12 4 24 10 27 14 8 11 42
21 35 10 -3 -6 3 -10 15 -10 17 0 20 4 15 20 -5 15 -2 20 12 20 10 1 38 12 63
25 50 27 60 29 60 16z m20 -47 c0 -16 -16 -19 -25 -4 -8 13 4 32 16 25 5 -4 9
-13 9 -21z m211 -10 c7 -8 9 -17 6 -20 -6 -6 -56 27 -57 38 0 10 39 -3 51 -18z
m-2701 -14 c0 -5 -5 -10 -11 -10 -5 0 -7 5 -4 10 3 6 8 10 11 10 2 0 4 -4 4
-10z m2798 -28 c8 -24 -25 -11 -37 15 -12 26 -12 26 10 11 13 -8 25 -20 27
-26z m-2828 -58 c0 -8 -5 -12 -10 -9 -6 4 -8 11 -5 16 9 14 15 11 15 -7z
m4160 -24 c0 -5 -2 -10 -4 -10 -3 0 -8 5 -11 10 -3 6 -1 10 4 10 6 0 11 -4 11
-10z m-130 -160 c0 -5 -5 -10 -11 -10 -5 0 -7 5 -4 10 3 6 8 10 11 10 2 0 4
-4 4 -10z m-2590 -164 c-7 -9 -20 -16 -28 -16 -12 0 -13 3 -4 12 7 7 12 21 12
32 0 19 1 19 17 4 13 -14 14 -20 3 -32z m0 -37 c0 -5 5 -7 10 -4 6 3 10 2 10
-4 0 -5 -9 -9 -20 -8 -20 1 -29 27 -10 27 6 0 10 -5 10 -11z m1530 -359 c0
-11 -4 -20 -10 -20 -5 0 -10 9 -10 20 0 11 5 20 10 20 6 0 10 -9 10 -20z m-32
-27 c-2 -9 -8 -18 -15 -20 -7 -3 -9 3 -6 16 6 25 26 28 21 4z m-328 -233 c0
-5 -5 -10 -11 -10 -5 0 -7 5 -4 10 3 6 8 10 11 10 2 0 4 -4 4 -10z m30 -40 c0
-5 -5 -10 -11 -10 -5 0 -7 5 -4 10 3 6 8 10 11 10 2 0 4 -4 4 -10z m-43 -57
c-27 -27 -41 -9 -16 19 19 22 25 24 27 11 2 -8 -3 -22 -11 -30z m-790 -25 c-3
-8 -6 -5 -6 6 -1 11 2 17 5 13 3 -3 4 -12 1 -19z m1113 -198 c0 -5 -4 -10 -10
-10 -5 0 -10 5 -10 10 0 6 5 10 10 10 6 0 10 -4 10 -10z m94 -46 c5 -14 4 -15
-9 -4 -17 14 -19 20 -6 20 5 0 12 -7 15 -16z m149 -47 c-3 -4 -10 -3 -17 2 -7
6 -15 8 -18 6 -3 -3 -3 6 -1 19 l5 25 18 -22 c10 -12 16 -26 13 -30z m-17 -18
c7 -12 -15 -31 -28 -23 -9 6 1 34 12 34 5 0 12 -5 16 -11z m866 -561 c-7 -7
-12 -8 -12 -2 0 14 12 26 19 19 2 -3 -1 -11 -7 -17z m-1188 -83 c-4 -8 -8 -15
-10 -15 -2 0 -4 7 -4 15 0 8 4 15 10 15 5 0 7 -7 4 -15z m115 -31 c-6 -8 -18
-14 -26 -14 -8 0 -12 -4 -9 -9 3 -5 -36 -51 -87 -103 -73 -75 -102 -98 -140
-110 -35 -11 -44 -12 -37 -3 8 9 7 14 -2 18 -7 2 -10 8 -6 12 4 4 21 2 39 -4
27 -9 30 -9 19 4 -7 9 -15 13 -18 10 -3 -2 -10 2 -16 10 -9 13 -17 14 -43 4
-18 -6 -40 -9 -50 -7 -9 2 -27 -7 -40 -19 -27 -28 -87 -31 -121 -7 -22 15 -25
15 -48 -7 -17 -16 -24 -18 -24 -8 0 22 96 101 128 105 34 5 44 14 33 28 -14
17 7 28 59 31 19 0 45 7 57 13 31 17 34 15 23 -14 -12 -32 -12 -34 0 -34 6 0
10 7 10 15 0 8 9 24 20 35 12 12 18 25 15 29 -8 14 18 27 45 24 14 -2 37 -3
53 -4 27 0 29 -19 2 -19 -7 0 -15 -7 -19 -15 -3 -9 0 -15 8 -15 8 0 17 -6 19
-12 4 -9 14 -4 31 15 15 16 36 27 51 27 14 0 25 5 25 10 0 6 -4 10 -10 10 -26
0 -6 19 23 22 41 4 51 0 36 -18z m-349 12 c0 -3 -4 -8 -10 -11 -5 -3 -10 -1
-10 4 0 6 5 11 10 11 6 0 10 -2 10 -4z m-165 -256 c4 -6 -7 -10 -24 -10 -17 0
-31 -4 -31 -8 0 -5 -13 -9 -30 -9 -38 0 -38 4 2 20 41 17 75 19 83 7z m-455
-914 c0 -17 -14 -29 -23 -20 -8 8 3 34 14 34 5 0 9 -6 9 -14z m-1800 -1486 c0
-55 -4 -100 -8 -100 -11 0 -57 50 -71 77 -22 44 -10 86 34 111 42 24 45 17 45
-88z"/>
<path d="M11350 3059 c0 -5 5 -7 10 -4 6 3 10 8 10 11 0 2 -4 4 -10 4 -5 0
-10 -5 -10 -11z"/>
<path d="M12930 9441 c0 -5 7 -14 15 -21 16 -14 18 -10 9 14 -6 17 -24 22 -24
7z"/>
<path d="M11234 9194 c3 -9 6 -18 6 -20 0 -2 15 -3 33 -3 30 2 30 2 5 6 -16 2
-28 11 -28 19 0 8 -5 14 -11 14 -6 0 -8 -7 -5 -16z"/>
<path d="M11355 9200 c3 -5 8 -10 11 -10 2 0 4 5 4 10 0 6 -5 10 -11 10 -5 0
-7 -4 -4 -10z"/>
<path d="M11401 9164 c0 -11 3 -14 6 -6 3 7 2 16 -1 19 -3 4 -6 -2 -5 -13z"/>
<path d="M11350 9150 c-7 -14 -7 -20 0 -20 5 0 10 5 10 10 0 6 7 10 16 10 8 0
12 5 9 10 -10 16 -23 12 -35 -10z"/>
<path d="M12176 8824 c-3 -8 1 -14 9 -14 20 0 28 17 11 23 -8 3 -17 -1 -20 -9z"/>
<path d="M10113 8033 c9 -2 25 -2 35 0 9 3 1 5 -18 5 -19 0 -27 -2 -17 -5z"/>
<path d="M10088 7993 c6 -2 18 -2 25 0 6 3 1 5 -13 5 -14 0 -19 -2 -12 -5z"/>
<path d="M10365 7990 c-17 -7 -15 -9 13 -9 17 -1 32 4 32 9 0 12 -17 12 -45 0z"/>
<path d="M11810 7985 c-15 -18 -87 -55 -107 -55 -8 0 -12 -4 -9 -9 7 -10 -30
-44 -71 -65 -37 -18 -44 -31 -13 -21 11 3 20 4 20 1 0 -12 -39 -44 -46 -38 -4
4 -4 1 0 -6 8 -13 -11 -45 -23 -38 -3 2 -15 -3 -26 -11 -19 -15 -19 -15 5 -8
22 7 23 6 11 -9 -8 -9 -9 -16 -3 -16 6 0 14 4 17 10 3 5 15 15 25 20 18 10 19
9 8 -15 -6 -14 -17 -25 -23 -25 -7 0 -11 -13 -10 -32 2 -18 0 -37 -4 -43 -3
-5 -6 -23 -7 -38 -1 -24 2 -28 18 -24 26 7 48 -2 48 -19 0 -8 7 -14 16 -14 8
0 12 -4 9 -10 -3 -5 -17 -10 -30 -10 -23 0 -24 -3 -21 -40 2 -22 0 -40 -6 -40
-5 0 -6 -5 -3 -11 4 -6 -1 -17 -11 -24 -18 -13 -17 -14 9 -15 16 0 26 -4 22
-10 -3 -5 -15 -10 -26 -10 -10 0 -19 -7 -19 -15 0 -8 7 -15 15 -15 8 0 15 -4
15 -10 0 -5 -7 -10 -15 -10 -8 0 -15 -7 -15 -15 0 -8 9 -15 20 -15 14 0 20 -7
20 -21 l0 -20 27 20 c41 33 41 15 0 -27 -20 -21 -37 -47 -37 -59 0 -22 19 -28
142 -39 39 -4 62 -12 74 -26 18 -19 18 -19 -9 -13 -16 4 -33 3 -41 -4 -11 -9
-15 -7 -19 9 -3 14 -10 18 -21 14 -13 -5 -14 -10 -5 -20 6 -7 8 -18 4 -24 -4
-6 8 -10 30 -10 40 0 92 -24 114 -53 9 -13 17 -15 23 -9 7 7 26 6 57 -3 44
-14 251 -39 258 -32 1 2 -35 12 -81 22 -47 10 -83 22 -80 27 3 4 -5 8 -18 8
-62 0 -134 39 -75 41 16 0 18 2 7 7 -8 4 -28 18 -43 31 -30 27 -20 45 20 34
15 -3 23 -1 23 7 0 8 8 10 22 7 12 -3 30 -1 41 5 14 7 22 7 27 -2 5 -9 9 -9
14 -1 9 14 93 15 101 1 3 -5 11 -10 16 -10 6 0 7 5 4 10 -4 6 8 10 27 11 41 2
38 2 72 -7 25 -6 28 -4 23 10 -4 10 4 28 22 48 27 30 29 31 59 17 19 -8 32
-21 32 -31 0 -17 12 -23 34 -19 21 4 56 -10 56 -23 0 -8 11 -21 25 -30 14 -9
25 -12 25 -6 0 5 -4 10 -10 10 -5 0 -10 7 -10 16 0 13 3 14 13 5 8 -6 17 -8
20 -4 7 7 77 -38 77 -49 0 -4 7 -5 15 -2 8 4 15 15 15 26 0 15 4 18 22 13 17
-6 20 -4 15 10 -4 9 -7 20 -7 25 0 4 -14 13 -32 19 -17 6 -37 20 -45 31 -8 11
-19 20 -24 20 -14 0 -64 39 -65 51 -1 5 -2 17 -3 27 -1 9 -5 23 -10 31 -8 12
-12 12 -26 -2 -20 -21 -39 -22 -55 -2 -7 8 -24 15 -37 15 -20 0 -24 4 -20 20
5 21 -7 28 -18 10 -11 -18 -47 -11 -52 10 -6 24 -23 27 -23 4 0 -11 -6 -14
-20 -9 -11 3 -38 6 -59 7 -28 0 -41 5 -44 17 -4 14 -5 14 -6 -1 0 -10 -5 -18
-11 -18 -6 0 -9 5 -7 11 1 7 -13 12 -35 13 -21 1 -43 7 -50 14 -22 22 14 38
110 51 186 23 341 -33 455 -167 36 -42 46 -35 18 12 -40 65 -114 117 -213 150
-48 17 -214 39 -227 31 -5 -2 -68 0 -141 5 -96 8 -142 16 -168 30 -27 14 -31
19 -17 19 11 0 29 -6 39 -14 25 -19 42 -19 27 -1 -14 17 -3 49 15 42 7 -3 16
-1 19 4 4 6 0 10 -7 10 -7 1 10 12 37 25 28 13 46 24 40 25 -17 2 59 39 81 40
11 0 25 5 32 12 6 6 42 12 79 13 38 0 73 3 78 6 6 4 28 10 49 13 35 7 38 6 27
-8 -11 -13 -9 -15 16 -16 15 0 57 -2 93 -4 37 -3 67 -1 70 5 4 5 18 -1 33 -15
18 -17 27 -20 27 -11 0 26 18 25 55 -5 42 -33 64 -41 26 -9 -13 11 -21 22 -17
26 10 10 66 -48 66 -69 0 -10 7 -18 15 -18 8 0 15 6 15 14 0 8 5 18 12 22 8 5
9 2 4 -11 -4 -11 0 -25 10 -36 9 -10 17 -29 18 -43 0 -13 5 -24 10 -23 5 1 10
-11 10 -28 1 -21 7 -31 21 -33 17 -4 18 -3 5 14 -11 13 -12 16 -1 10 10 -7 11
-3 5 15 -18 58 -34 114 -33 117 0 2 -3 7 -7 10 -4 4 -4 0 0 -8 4 -8 -4 -1 -19
15 -20 23 -25 38 -21 61 4 30 -4 57 -18 55 -19 -3 -26 2 -50 39 -14 22 -32 40
-38 40 -6 0 -2 -10 10 -23 12 -13 22 -28 22 -35 0 -6 9 -17 20 -25 11 -8 22
-29 25 -48 l5 -34 -15 33 c-17 36 -68 72 -102 72 -13 0 -23 4 -23 9 0 4 11 6
25 3 14 -2 25 0 24 4 -2 24 -46 89 -62 92 -17 4 -17 3 -1 -17 10 -11 19 -27
20 -36 3 -20 -32 -20 -52 0 -9 8 -25 15 -37 16 -51 2 -68 7 -90 26 -13 13 -42
23 -74 27 -28 3 -57 8 -65 11 -13 5 -35 8 -148 19 -36 4 -76 9 -90 12 -24 4
-24 4 -6 -11 17 -13 17 -15 4 -15 -9 0 -29 5 -45 11 l-28 12 25 7 c20 5 13 8
-32 13 -64 8 -111 -4 -102 -27 4 -11 0 -13 -15 -9 -11 3 -34 -2 -52 -11 -37
-19 -59 -21 -59 -5 0 6 8 8 19 4 14 -4 23 0 30 14 6 11 21 22 33 24 18 3 16 5
-7 6 -17 0 -37 -5 -45 -11 -8 -7 -6 -3 4 10 11 12 17 24 14 27 -3 3 -11 -2
-18 -10z m182 -47 c-10 -10 -15 -10 -22 2 -6 9 -5 17 3 22 18 11 33 -10 19
-24z m248 -18 c0 -5 -7 -7 -15 -4 -8 4 -15 8 -15 10 0 2 7 4 15 4 8 0 15 -4
15 -10z m85 -20 c3 -5 -1 -10 -10 -10 -9 0 -13 5 -10 10 3 6 8 10 10 10 2 0 7
-4 10 -10z m-525 -14 c0 -9 -8 -12 -26 -8 -19 3 -22 7 -12 13 20 13 38 11 38
-5z m483 7 c-7 -2 -21 -2 -30 0 -10 3 -4 5 12 5 17 0 24 -2 18 -5z m-408 -12
c9 -16 -9 -20 -23 -5 -10 12 -10 14 2 14 8 0 17 -4 21 -9z m-175 -6 c0 -2 -10
-9 -22 -15 -22 -11 -22 -10 -4 4 21 17 26 19 26 11z m750 -5 c12 -8 12 -10 -5
-10 -11 0 -27 5 -35 10 -12 8 -12 10 5 10 11 0 27 -5 35 -10z m135 -70 c3 -5
1 -10 -4 -10 -6 0 -11 5 -11 10 0 6 2 10 4 10 3 0 8 -4 11 -10z m-30 -20 c3
-6 -1 -7 -9 -4 -18 7 -21 14 -7 14 6 0 13 -4 16 -10z m42 -22 c-3 -8 -6 -5 -6
6 -1 11 2 17 5 13 3 -3 4 -12 1 -19z m-30 -4 c-3 -3 -12 -4 -19 -1 -8 3 -5 6
6 6 11 1 17 -2 13 -5z m68 -4 c3 -5 -1 -10 -9 -10 -9 0 -16 5 -16 10 0 6 4 10
9 10 6 0 13 -4 16 -10z m101 -38 c-4 -3 -14 2 -24 12 -16 18 -16 18 6 6 13 -6
21 -14 18 -18z m-1135 -35 c-13 -12 -20 -15 -15 -7 12 22 28 39 33 34 3 -3 -6
-15 -18 -27z m274 -138 c5 -7 -5 -8 -32 -3 -51 9 -54 14 -10 14 20 0 39 -5 42
-11z m-135 -3 c0 -11 -19 -15 -25 -6 -3 5 1 10 9 10 9 0 16 -2 16 -4z m63 -18
c12 -9 14 -17 7 -28 -8 -13 -10 -12 -10 3 0 10 -8 17 -19 17 -11 0 -23 5 -26
10 -9 14 28 12 48 -2z m64 -14 c-3 -3 -12 -4 -19 -1 -8 3 -5 6 6 6 11 1 17 -2
13 -5z m-183 -12 c7 -12 -23 -54 -34 -47 -5 3 -4 16 2 30 12 26 23 31 32 17z
m73 2 c-3 -3 -12 -4 -19 -1 -8 3 -5 6 6 6 11 1 17 -2 13 -5z m183 -263 c0 -11
-9 -17 -25 -19 -14 -1 -25 3 -25 9 0 5 -4 7 -10 4 -5 -3 -10 -1 -10 5 0 13 40
29 58 23 6 -3 12 -13 12 -22z m-310 -51 c0 -5 -4 -10 -9 -10 -6 0 -13 5 -16
10 -3 6 1 10 9 10 9 0 16 -4 16 -10z m240 -59 c0 -5 -9 -11 -21 -14 -16 -4
-18 -3 -8 9 13 16 29 19 29 5z"/>
<path d="M12416 7975 c-17 -13 -16 -14 18 -20 22 -5 38 -14 41 -26 4 -10 14
-19 23 -19 13 0 12 4 -6 20 -12 12 -22 25 -22 30 0 6 -9 10 -21 10 -11 0 -17
5 -14 10 8 13 4 12 -19 -5z"/>
<path d="M12205 7960 c3 -5 11 -10 16 -10 6 0 7 5 4 10 -3 6 -11 10 -16 10 -6
0 -7 -4 -4 -10z"/>
<path d="M12398 7933 c7 -3 16 -2 19 1 4 3 -2 6 -13 5 -11 0 -14 -3 -6 -6z"/>
<path d="M11650 7910 c-8 -5 -12 -11 -9 -14 3 -3 14 1 25 9 21 16 8 20 -16 5z"/>
<path d="M12559 7899 l-24 -21 30 8 c37 9 41 12 29 24 -7 7 -18 3 -35 -11z"/>
<path d="M12505 7890 c3 -5 8 -10 11 -10 2 0 4 5 4 10 0 6 -5 10 -11 10 -5 0
-7 -4 -4 -10z"/>
<path d="M11610 7880 c-9 -6 -10 -10 -3 -10 6 0 15 5 18 10 8 12 4 12 -15 0z"/>
<path d="M12595 7860 c10 -11 23 -20 28 -20 6 0 2 9 -8 20 -10 11 -23 20 -28
20 -6 0 -2 -9 8 -20z"/>
<path d="M10830 7839 c0 -9 9 -24 20 -34 26 -23 26 -8 0 25 -14 18 -20 21 -20
9z"/>
<path d="M11549 7833 c-13 -16 -12 -17 4 -4 9 7 17 15 17 17 0 8 -8 3 -21 -13z"/>
<path d="M12810 7722 c0 -5 7 -15 15 -22 8 -7 15 -8 15 -2 0 5 -7 15 -15 22
-8 7 -15 8 -15 2z"/>
<path d="M12735 7600 c17 -5 41 -19 53 -30 24 -23 29 -15 8 13 -8 10 -31 20
-52 22 -37 5 -38 4 -9 -5z"/>
<path d="M13128 7218 c-58 -75 -91 -142 -89 -178 1 -26 -1 -31 -9 -20 -5 8
-10 22 -10 31 0 9 -7 32 -15 50 l-16 34 6 -45 c7 -44 12 -70 15 -80 1 -3 2 -8
1 -12 0 -5 4 -8 9 -8 6 0 10 -12 9 -27 -1 -45 9 -116 20 -143 9 -21 10 -17 9
29 -2 41 2 55 15 62 9 6 17 18 17 27 0 10 7 45 16 77 8 33 17 67 19 75 3 8 11
41 20 73 22 82 17 99 -17 55z"/>
<path d="M9947 7143 c-4 -3 -7 -11 -7 -17 0 -6 5 -5 12 2 6 6 9 14 7 17 -3 3
-9 2 -12 -2z"/>
<path d="M12003 7120 c-11 -16 -10 -18 2 -14 8 4 15 12 15 20 0 19 -3 18 -17
-6z"/>
<path d="M9972 7118 c-6 -8 -6 -22 -1 -35 9 -24 29 -32 29 -12 0 7 10 9 27 4
26 -6 26 -6 -6 24 -38 36 -36 35 -49 19z"/>
<path d="M12106 7105 c-4 -12 -1 -16 11 -13 18 3 21 20 5 26 -5 1 -12 -4 -16
-13z"/>
<path d="M9925 7090 c-3 -5 -1 -10 4 -10 6 0 11 5 11 10 0 6 -2 10 -4 10 -3 0
-8 -4 -11 -10z"/>
<path d="M10456 7085 c6 -15 -11 -22 -19 -7 -2 4 -2 1 -1 -5 5 -19 -17 -16
-32 5 -11 14 -13 14 -9 1 6 -15 38 -42 75 -64 13 -8 13 -7 1 8 -12 15 -12 19
4 31 17 13 18 15 3 30 -21 20 -29 21 -22 1z"/>
<path d="M8990 7065 c0 -8 5 -15 10 -15 6 0 10 7 10 15 0 8 -4 15 -10 15 -5 0
-10 -7 -10 -15z"/>
<path d="M10099 7067 c7 -7 14 -8 21 -1 6 6 2 10 -12 11 -16 2 -18 -1 -9 -10z"/>
<path d="M12060 7060 c0 -5 7 -7 15 -4 8 4 15 8 15 10 0 2 -7 4 -15 4 -8 0
-15 -4 -15 -10z"/>
<path d="M10400 7020 c13 -11 25 -20 28 -20 3 0 -3 9 -13 20 -10 11 -23 20
-28 20 -6 0 0 -9 13 -20z"/>
<path d="M9040 7020 c0 -5 9 -10 19 -10 11 0 23 5 26 10 4 6 -5 10 -19 10 -14
0 -26 -4 -26 -10z"/>
<path d="M12138 7003 c7 -3 16 -2 19 1 4 3 -2 6 -13 5 -11 0 -14 -3 -6 -6z"/>
<path d="M8880 6950 c0 -5 5 -10 11 -10 5 0 7 5 4 10 -3 6 -8 10 -11 10 -2 0
-4 -4 -4 -10z"/>
<path d="M8900 6555 c0 -8 5 -15 10 -15 6 0 10 7 10 15 0 8 -4 15 -10 15 -5 0
-10 -7 -10 -15z"/>
<path d="M8900 6358 c0 -18 5 -28 15 -28 19 0 19 11 0 36 -14 18 -14 18 -15
-8z"/>
<path d="M8951 6344 c0 -11 3 -14 6 -6 3 7 2 16 -1 19 -3 4 -6 -2 -5 -13z"/>
<path d="M11559 6046 c-44 -21 -114 -106 -106 -130 2 -6 28 -17 58 -24 39 -9
62 -22 81 -45 75 -87 96 -98 149 -73 43 21 125 78 130 91 2 6 7 9 12 8 12 -5
8 32 -5 45 -9 9 -9 12 1 12 8 0 11 14 9 47 -3 46 -5 49 -48 71 -39 19 -58 22
-141 20 -73 -1 -106 -6 -140 -22z"/>
<path d="M9255 5960 c-3 -5 1 -10 9 -10 9 0 16 5 16 10 0 6 -4 10 -9 10 -6 0
-13 -4 -16 -10z"/>
<path d="M145 5940 c-3 -6 1 -7 9 -4 18 7 21 14 7 14 -6 0 -13 -4 -16 -10z"/>
<path d="M9475 5770 c-3 -6 1 -7 9 -4 18 7 21 14 7 14 -6 0 -13 -4 -16 -10z"/>
<path d="M10242 5545 c-14 -8 -19 -15 -13 -19 13 -8 51 10 51 24 0 13 -9 11
-38 -5z"/>
<path d="M14375 5500 c-3 -5 1 -10 9 -10 9 0 16 5 16 10 0 6 -4 10 -9 10 -6 0
-13 -4 -16 -10z"/>
<path d="M16180 5490 c0 -5 15 -10 33 -10 24 0 28 3 17 10 -20 13 -50 13 -50
0z"/>
<path d="M12705 5190 c4 -6 11 -8 16 -5 14 9 11 15 -7 15 -8 0 -12 -5 -9 -10z"/>
<path d="M7520 5074 c0 -15 67 -50 77 -40 3 3 -2 17 -11 31 -19 28 -66 35 -66
9z"/>
<path d="M12195 4980 c3 -5 11 -10 16 -10 6 0 7 5 4 10 -3 6 -11 10 -16 10 -6
0 -7 -4 -4 -10z"/>
<path d="M15736 4945 c4 -9 19 -15 40 -15 24 0 34 5 34 15 0 11 -11 15 -40 15
-31 0 -38 -3 -34 -15z"/>
<path d="M16663 4923 c-23 -9 -14 -33 12 -33 31 0 76 20 69 31 -6 10 -61 11
-81 2z"/>
<path d="M15990 4872 c0 -15 24 -32 47 -32 28 0 30 16 4 30 -23 12 -51 13 -51
2z"/>
<path d="M16180 4855 c0 -16 17 -19 44 -9 26 10 18 24 -14 24 -20 0 -30 -5
-30 -15z"/>
<path d="M12171 4534 c0 -11 3 -14 6 -6 3 7 2 16 -1 19 -3 4 -6 -2 -5 -13z"/>
<path d="M12230 4509 c0 -5 5 -7 10 -4 6 3 10 8 10 11 0 2 -4 4 -10 4 -5 0
-10 -5 -10 -11z"/>
<path d="M12077 4439 c7 -7 15 -10 18 -7 3 3 -2 9 -12 12 -14 6 -15 5 -6 -5z"/>
<path d="M11507 4381 c-4 -17 -3 -21 5 -13 5 5 8 16 6 23 -3 8 -7 3 -11 -10z"/>
<path d="M12015 4340 c3 -5 14 -10 23 -10 15 0 15 2 2 10 -20 13 -33 13 -25 0z"/>
<path d="M11865 4089 c-16 -10 -25 -19 -19 -19 7 0 22 9 35 20 30 24 23 24
-16 -1z"/>
<path d="M11940 4102 c0 -6 9 -12 20 -15 11 -3 20 -3 20 -1 0 2 -9 8 -20 14
-11 6 -20 7 -20 2z"/>
<path d="M11437 4059 c7 -7 15 -10 18 -7 3 3 -2 9 -12 12 -14 6 -15 5 -6 -5z"/>
<path d="M11356 4052 c-3 -6 -1 -14 5 -17 15 -10 25 3 12 16 -7 7 -13 7 -17 1z"/>
<path d="M11660 4041 c0 -7 5 -9 10 -6 6 3 24 -3 40 -15 17 -12 30 -16 30 -10
0 6 5 8 12 4 7 -4 8 -3 4 5 -4 6 -11 9 -16 6 -4 -3 -10 -1 -12 5 -5 15 -68 25
-68 11z"/>
</g>
</svg>
